<svg xmlns="http://www.w3.org/2000/svg" viewBox="0 0 64 64" role="img" aria-label="Viking">
  <g fill="#1E4FB8">
    <path d="M32 6 L46 12 L50 22 L48 32 L52 40 L44 46 L38 58 L32 52 L26 58 L20 46 L12 40 L16 32 L14 22 L18 12 Z"/>
  </g>
  <g fill="#ffffff">
    <path d="M32 14 L40 18 L38 26 L32 24 L26 26 L24 18 Z"/>
    <circle cx="28" cy="20" r="1.5"/>
    <circle cx="36" cy="20" r="1.5"/>
  </g>
  <g fill="#1E4FB8">
    <path d="M22 28 L20 38 L24 42 L28 36 Z"/>
    <path d="M42 28 L44 38 L40 42 L36 36 Z"/>
  </g>
</svg>
